<svg xmlns="http://www.w3.org/2000/svg" viewBox="32 80 960 1040"><path d="M698.5 1120c-66.667 0-129.583-11.33-188.75-34s-111.917-54.33-158.25-95q-69.5-61-113-143t-54-178q-9.5 8.5-24 19T129 707t-35 7.5q-29 0-45.5-20T32 640q0-48.5 20.75-89.75t55.25-66.5 74.5-25.25a88 88 0 0 1 6.75.25q3.25.25 6.75.75 29.5-115 91.75-200.25T436.5 127t188-47q80.5 0 147.75 30.5t116.5 86T965 327.75t27 165.75q0 65-18.75 128.5T909.5 773.5q-18 35-28.25 58.5t-14.5 40.25T862.5 904q0 35 23.75 61.25t70.25 41.25q-8.5 33.495-45.25 59.25c-24.5 17.17-55.25 30.5-92.25 40Q763.5 1120 698.5 1120m-305-372q19 0 33.25-14.75T446 692.5l2.5-12.5q6-29.5 19.25-46.5t35.25-20q-3.5-11-14.5-18t-24-7q-14 0-26.5 8.25T418 619l-26-14q8.5-16 24.5-28.25T451 561q-7.5-3.5-15.5-5t-18-1.5q-34.5 0-57.75 29.25T336.5 658.5q0 38.5 15.75 64T393.5 748m0 35q-41 0-66.5-34.5t-25.5-90q0-43 14-72T354 542a105 105 0 0 1-.75-6.75 88 88 0 0 1-.25-6.75q0-20.5 5.5-43.25T380 436q41 54 103.75 79T628 540q0 26-14.5 46.5T578 621.25 536.75 643 505 650.5q-6.5 0-12.5 9t-10 29.5l-2.5 12q-8 39.5-31.75 60.75T393.5 783m305 297c43 0 82.583-5.08 118.75-15.25q54.25-15.255 81.25-39.75-76-43.5-76-121 0-18.5 4.75-38.5t16-46.5T874 755q43-83.5 60.5-142.25T952 493.5q0-82-24-150.5t-67.75-118.5-103.75-77.25-132-27.25q-97.5 0-179.75 48.25T305.5 303.75 226 508.5q-15.5-5.5-25.25-7.75t-18.25-2.25q-28.5 0-53.75 19.75t-41 52T72 640q0 18.5 5.75 26.5t16.25 8q13.5 0 26.5-6t35.5-26q12.5-11.5 21.75-18.25t18.75-6.75q12 0 18.75 8.5t7.25 20.5q6 92 45 171t104 138c43.333 39.333 92.833 69.92 148.5 91.75S635.167 1080 698.5 1080M629 869.5q-29 0-45.25-20T567.5 795q0-48.5 20.75-89.75t55-66.5 74.25-25.25q29 0 61 15.5l-17 36q-23-11.5-44-11.5-28.5 0-53.75 19.75t-40.75 52T607.5 795q0 18.5 5.5 26.5t16 8q13.5 0 26-10.5t26-24.5 30.25-24.5 38.25-10.5q14 0 25.5 5l-14 37q-6-2-11.5-2-14 0-26 10.5t-25 24.5-29.75 24.5T629 869.5M454.5 407q-32.5-47-86-65.5 8.5-40 28.5-63.5t45.5-23.5q23 0 38.5 18.25t15.5 44.75q0 43.5-42 89.5m253 117q-26.5-31.5-62.75-49T572 457.5q-12.5 0-26.5 2.5L530 435q37-31 77.5-46.75t86-15.75q21 0 46.5 4l-7.5 39q-8-1.5-16-2T700 413q-18.5 0-36.5 3.5T629 427q33 10 61.75 28T740 496.5Z"/></svg>